# xmcd
#
# Track frame offsets:
#	150
#	15030
#	32239
#	50899
#	67959
#	84388
#	102079
#	116901
#	139722
#	156599
#
# Disc length: 2289 seconds
#
# Revision: 1
# Processed by: cddbd v1.5.2PL0 Copyright (c) Steve Scherf et al.
# Submitted via: audiograbber 1.83.01
#
DISCID=8008ef0a
DTITLE=Various Artist - FH-7104 Forever Hits/Dynamite Country
DYEAR=1900
DGENRE=Karaoke
TTITLE0=Toby Keith - I Wanna Talk About Me
TTITLE1=Toby Keith - Honky Tonk U
TTITLE2=Toby Keith - I Love This Bar
TTITLE3=Toby Keith/Willie Nelson - Beer For My Horses
TTITLE4=Toby Keith - Courtesy Of The Red, White and Blue
TTITLE5=Toby Keith - You Shouldn't Kiss Me
TTITLE6=Kenny Chesney - How Forever Feels
TTITLE7=Kenny Chesney/Uncle Kracker - When The Sun Goes Down
TTITLE8=Kenny Chesney - Old Blue Chair
TTITLE9=Kenny Chesney - Keg In The Closet
EXTD=
EXTT0=
EXTT1=
EXTT2=
EXTT3=
EXTT4=
EXTT5=
EXTT6=
EXTT7=
EXTT8=
EXTT9=
PLAYORDER=
